<svg class="mapa__crtez" viewBox="0 0 800 520" xmlns="http://www.w3.org/2000/svg" role="img" aria-label="Stilizovana ilustracija mape — poslovnica u Kruševcu">
  <style>
    svg {
      --m-podloga: #1d3a28; --m-asfalt: #242c34; --m-oznaka: #f2f6fa;
      --m-zgrada: #27313b; --m-krov: #354049; --m-ivica: #4a5661;
      --m-prozor: #ffc46b; --m-zelenilo: #4c9160; --m-zelenilo-2: #4f9966;
      --m-zelenilo-3: #74c48c; --migavac: #ffa51f;
      background: var(--m-podloga);
    }
    .mapa__vozilo { display: none; }
    @supports (offset-path: path("M0 0 H1")) {
      .mapa__vozilo {
        display: block; transform-box: view-box; transform-origin: 0 0;
        offset-rotate: auto; animation: vozi 17s linear infinite;
      }
      .mapa__vozilo--a { offset-path: path("M-30 313 H830"); }
      .mapa__vozilo--b { offset-path: path("M509 550 V-30"); animation-duration: 21s; animation-delay: -6s; }
      .mapa__vozilo--c { offset-path: path("M633 550 V352"); animation-duration: 13s; animation-delay: -3s; }
    }
    @keyframes vozi { from { offset-distance: 0%; } to { offset-distance: 100%; } }
    @media (prefers-reduced-motion: reduce) { .mapa__vozilo { animation: none; } }
  </style><defs><filter id="m-zrno-f"><feTurbulence type="fractalNoise" baseFrequency="1.2" numOctaves="3"/></filter><pattern id="m-zrno" width="120" height="120" patternUnits="userSpaceOnUse"><rect width="120" height="120" filter="url(#m-zrno-f)" opacity=".22"/></pattern></defs><rect x="0.0" y="0.0" width="800.0" height="520.0" fill="var(--m-podloga)"/><rect x="0.0" y="0.0" width="800.0" height="520.0" fill="url(#m-zrno)" opacity=".5"/><rect x="16.0" y="16.0" width="300.0" height="150.0" rx="6" fill="var(--m-zelenilo)" opacity=".55"/><rect x="352.0" y="16.0" width="180.0" height="150.0" rx="6" fill="var(--m-zelenilo)" opacity=".55"/><rect x="568.0" y="16.0" width="216.0" height="150.0" rx="6" fill="var(--m-zelenilo)" opacity=".55"/><rect x="16.0" y="200.0" width="300.0" height="120.0" rx="6" fill="var(--m-zelenilo)" opacity=".55"/><rect x="568.0" y="200.0" width="216.0" height="120.0" rx="6" fill="var(--m-zelenilo)" opacity=".55"/><rect x="16.0" y="352.0" width="300.0" height="150.0" rx="6" fill="var(--m-zelenilo)" opacity=".55"/><rect x="352.0" y="352.0" width="180.0" height="150.0" rx="6" fill="var(--m-zelenilo)" opacity=".55"/><rect x="568.0" y="352.0" width="216.0" height="150.0" rx="6" fill="var(--m-zelenilo)" opacity=".55"/><rect x="0.0" y="264.0" width="800.0" height="66.0" fill="var(--m-asfalt)"/><rect x="496.0" y="0.0" width="52.0" height="520.0" fill="var(--m-asfalt)"/><rect x="168.0" y="0.0" width="26.0" height="520.0" fill="var(--m-asfalt)"/><rect x="0.0" y="168.0" width="800.0" height="24.0" fill="var(--m-asfalt)"/><rect x="0.0" y="424.0" width="800.0" height="24.0" fill="var(--m-asfalt)"/><circle cx="522.0" cy="297.0" r="74.0" fill="var(--m-asfalt)"/><circle cx="522.0" cy="297.0" r="34.0" fill="var(--m-zelenilo-2)" stroke="var(--m-ivica)" stroke-width="2"/><circle cx="523.5" cy="299.0" r="12.0" fill="#0a1410" opacity=".6"/><circle cx="522.0" cy="297.0" r="12.0" fill="var(--m-zelenilo-2)"/><circle cx="518.4" cy="293.4" r="6.0" fill="var(--m-zelenilo-3)" opacity=".7"/><circle cx="522.0" cy="297.0" r="54.0" fill="none" stroke="var(--m-oznaka)" stroke-width="2.5" stroke-dasharray="10 12" opacity=".65"/><path d="M0 297 H448" stroke="var(--m-oznaka)" stroke-width="3.4" stroke-dasharray="26 20" opacity=".85"/><path d="M596 297 H800" stroke="var(--m-oznaka)" stroke-width="3.4" stroke-dasharray="26 20" opacity=".85"/><path d="M522 0 V223" stroke="var(--m-oznaka)" stroke-width="3" stroke-dasharray="22 18" opacity=".8"/><path d="M522 371 V520" stroke="var(--m-oznaka)" stroke-width="3" stroke-dasharray="22 18" opacity=".8"/><path d="M0 270 H800 M0 324 H800" stroke="var(--m-oznaka)" stroke-width="1.6" opacity=".35"/><rect x="161.9" y="267.0" width="3.2" height="60.0" fill="var(--m-oznaka)" opacity=".75"/><rect x="168.9" y="267.0" width="3.2" height="60.0" fill="var(--m-oznaka)" opacity=".75"/><rect x="175.9" y="267.0" width="3.2" height="60.0" fill="var(--m-oznaka)" opacity=".75"/><rect x="182.9" y="267.0" width="3.2" height="60.0" fill="var(--m-oznaka)" opacity=".75"/><rect x="189.9" y="267.0" width="3.2" height="60.0" fill="var(--m-oznaka)" opacity=".75"/><rect x="196.9" y="267.0" width="3.2" height="60.0" fill="var(--m-oznaka)" opacity=".75"/><rect x="640.9" y="267.0" width="3.2" height="60.0" fill="var(--m-oznaka)" opacity=".75"/><rect x="647.9" y="267.0" width="3.2" height="60.0" fill="var(--m-oznaka)" opacity=".75"/><rect x="654.9" y="267.0" width="3.2" height="60.0" fill="var(--m-oznaka)" opacity=".75"/><rect x="661.9" y="267.0" width="3.2" height="60.0" fill="var(--m-oznaka)" opacity=".75"/><rect x="668.9" y="267.0" width="3.2" height="60.0" fill="var(--m-oznaka)" opacity=".75"/><rect x="675.9" y="267.0" width="3.2" height="60.0" fill="var(--m-oznaka)" opacity=".75"/><rect x="499.0" y="164.4" width="46.0" height="3.2" fill="var(--m-oznaka)" opacity=".75"/><rect x="499.0" y="171.4" width="46.0" height="3.2" fill="var(--m-oznaka)" opacity=".75"/><rect x="499.0" y="178.4" width="46.0" height="3.2" fill="var(--m-oznaka)" opacity=".75"/><rect x="499.0" y="185.4" width="46.0" height="3.2" fill="var(--m-oznaka)" opacity=".75"/><rect x="499.0" y="192.4" width="46.0" height="3.2" fill="var(--m-oznaka)" opacity=".75"/><rect x="24.0" y="57.0" width="78.0" height="54.0" rx="3" fill="var(--m-zgrada)" stroke="var(--m-ivica)" stroke-width="1"/><rect x="24.0" y="57.0" width="78.0" height="4.0" rx="2" fill="var(--m-krov)" opacity=".7"/><rect x="31.0" y="68.0" width="5.0" height="5.0" rx="1" fill="var(--m-prozor)" opacity="0.75"/><rect x="76.0" y="68.0" width="5.0" height="5.0" rx="1" fill="var(--m-prozor)" opacity="0.60"/><rect x="91.0" y="68.0" width="5.0" height="5.0" rx="1" fill="var(--m-prozor)" opacity="0.40"/><rect x="46.0" y="84.0" width="5.0" height="5.0" rx="1" fill="var(--m-prozor)" opacity="0.85"/><rect x="46.0" y="100.0" width="5.0" height="5.0" rx="1" fill="var(--m-prozor)" opacity="0.47"/><rect x="91.0" y="100.0" width="5.0" height="5.0" rx="1" fill="var(--m-prozor)" opacity="0.88"/><rect x="115.0" y="45.0" width="39.0" height="42.0" rx="3" fill="var(--m-zgrada)" stroke="var(--m-ivica)" stroke-width="1"/><rect x="115.0" y="45.0" width="39.0" height="4.0" rx="2" fill="var(--m-krov)" opacity=".7"/><rect x="122.0" y="56.0" width="5.0" height="5.0" rx="1" fill="var(--m-prozor)" opacity="0.80"/><rect x="122.0" y="72.0" width="5.0" height="5.0" rx="1" fill="var(--m-prozor)" opacity="0.87"/><rect x="206.0" y="71.0" width="81.0" height="49.0" rx="3" fill="var(--m-zgrada)" stroke="var(--m-ivica)" stroke-width="1"/><rect x="206.0" y="71.0" width="81.0" height="4.0" rx="2" fill="var(--m-krov)" opacity=".7"/><rect x="213.0" y="82.0" width="5.0" height="5.0" rx="1" fill="var(--m-prozor)" opacity="0.71"/><rect x="258.0" y="82.0" width="5.0" height="5.0" rx="1" fill="var(--m-prozor)" opacity="0.55"/><rect x="273.0" y="82.0" width="5.0" height="5.0" rx="1" fill="var(--m-prozor)" opacity="0.81"/><rect x="228.0" y="98.0" width="5.0" height="5.0" rx="1" fill="var(--m-prozor)" opacity="0.58"/><rect x="243.0" y="98.0" width="5.0" height="5.0" rx="1" fill="var(--m-prozor)" opacity="0.86"/><rect x="258.0" y="98.0" width="5.0" height="5.0" rx="1" fill="var(--m-prozor)" opacity="0.39"/><rect x="213.0" y="114.0" width="5.0" height="5.0" rx="1" fill="var(--m-prozor)" opacity="0.88"/><rect x="228.0" y="114.0" width="5.0" height="5.0" rx="1" fill="var(--m-prozor)" opacity="0.68"/><rect x="273.0" y="114.0" width="5.0" height="5.0" rx="1" fill="var(--m-prozor)" opacity="0.84"/><rect x="360.0" y="50.0" width="44.0" height="49.0" rx="3" fill="var(--m-zgrada)" stroke="var(--m-ivica)" stroke-width="1"/><rect x="360.0" y="50.0" width="44.0" height="4.0" rx="2" fill="var(--m-krov)" opacity=".7"/><rect x="367.0" y="61.0" width="5.0" height="5.0" rx="1" fill="var(--m-prozor)" opacity="0.85"/><rect x="426.0" y="45.0" width="41.0" height="38.0" rx="3" fill="var(--m-zgrada)" stroke="var(--m-ivica)" stroke-width="1"/><rect x="426.0" y="45.0" width="41.0" height="4.0" rx="2" fill="var(--m-krov)" opacity=".7"/><rect x="433.0" y="72.0" width="5.0" height="5.0" rx="1" fill="var(--m-prozor)" opacity="0.60"/><rect x="448.0" y="72.0" width="5.0" height="5.0" rx="1" fill="var(--m-prozor)" opacity="0.91"/><rect x="576.0" y="56.0" width="75.0" height="45.0" rx="3" fill="var(--m-zgrada)" stroke="var(--m-ivica)" stroke-width="1"/><rect x="576.0" y="56.0" width="75.0" height="4.0" rx="2" fill="var(--m-krov)" opacity=".7"/><rect x="583.0" y="67.0" width="5.0" height="5.0" rx="1" fill="var(--m-prozor)" opacity="0.71"/><rect x="613.0" y="67.0" width="5.0" height="5.0" rx="1" fill="var(--m-prozor)" opacity="0.39"/><rect x="643.0" y="67.0" width="5.0" height="5.0" rx="1" fill="var(--m-prozor)" opacity="0.70"/><rect x="613.0" y="83.0" width="5.0" height="5.0" rx="1" fill="var(--m-prozor)" opacity="0.73"/><rect x="628.0" y="83.0" width="5.0" height="5.0" rx="1" fill="var(--m-prozor)" opacity="0.39"/><rect x="643.0" y="83.0" width="5.0" height="5.0" rx="1" fill="var(--m-prozor)" opacity="0.61"/><rect x="665.0" y="80.0" width="49.0" height="52.0" rx="3" fill="var(--m-zgrada)" stroke="var(--m-ivica)" stroke-width="1"/><rect x="665.0" y="80.0" width="49.0" height="4.0" rx="2" fill="var(--m-krov)" opacity=".7"/><rect x="672.0" y="91.0" width="5.0" height="5.0" rx="1" fill="var(--m-prozor)" opacity="0.61"/><rect x="687.0" y="91.0" width="5.0" height="5.0" rx="1" fill="var(--m-prozor)" opacity="0.37"/><rect x="672.0" y="107.0" width="5.0" height="5.0" rx="1" fill="var(--m-prozor)" opacity="0.61"/><rect x="672.0" y="123.0" width="5.0" height="5.0" rx="1" fill="var(--m-prozor)" opacity="0.63"/><rect x="728.0" y="71.0" width="41.0" height="55.0" rx="3" fill="var(--m-zgrada)" stroke="var(--m-ivica)" stroke-width="1"/><rect x="728.0" y="71.0" width="41.0" height="4.0" rx="2" fill="var(--m-krov)" opacity=".7"/><rect x="750.0" y="82.0" width="5.0" height="5.0" rx="1" fill="var(--m-prozor)" opacity="0.68"/><rect x="735.0" y="98.0" width="5.0" height="5.0" rx="1" fill="var(--m-prozor)" opacity="0.85"/><rect x="750.0" y="98.0" width="5.0" height="5.0" rx="1" fill="var(--m-prozor)" opacity="0.59"/><rect x="735.0" y="114.0" width="5.0" height="5.0" rx="1" fill="var(--m-prozor)" opacity="0.83"/><rect x="24.0" y="207.0" width="55.0" height="43.0" rx="3" fill="var(--m-zgrada)" stroke="var(--m-ivica)" stroke-width="1"/><rect x="24.0" y="207.0" width="55.0" height="4.0" rx="2" fill="var(--m-krov)" opacity=".7"/><rect x="31.0" y="218.0" width="5.0" height="5.0" rx="1" fill="var(--m-prozor)" opacity="0.56"/><rect x="46.0" y="218.0" width="5.0" height="5.0" rx="1" fill="var(--m-prozor)" opacity="0.84"/><rect x="61.0" y="218.0" width="5.0" height="5.0" rx="1" fill="var(--m-prozor)" opacity="0.95"/><rect x="46.0" y="234.0" width="5.0" height="5.0" rx="1" fill="var(--m-prozor)" opacity="0.63"/><rect x="103.0" y="212.0" width="43.0" height="40.0" rx="3" fill="var(--m-zgrada)" stroke="var(--m-ivica)" stroke-width="1"/><rect x="103.0" y="212.0" width="43.0" height="4.0" rx="2" fill="var(--m-krov)" opacity=".7"/><rect x="110.0" y="223.0" width="5.0" height="5.0" rx="1" fill="var(--m-prozor)" opacity="0.45"/><rect x="125.0" y="239.0" width="5.0" height="5.0" rx="1" fill="var(--m-prozor)" opacity="0.76"/><rect x="208.0" y="207.0" width="51.0" height="47.0" rx="3" fill="var(--m-zgrada)" stroke="var(--m-ivica)" stroke-width="1"/><rect x="208.0" y="207.0" width="51.0" height="4.0" rx="2" fill="var(--m-krov)" opacity=".7"/><rect x="245.0" y="218.0" width="5.0" height="5.0" rx="1" fill="var(--m-prozor)" opacity="0.74"/><rect x="230.0" y="234.0" width="5.0" height="5.0" rx="1" fill="var(--m-prozor)" opacity="0.47"/><rect x="245.0" y="234.0" width="5.0" height="5.0" rx="1" fill="var(--m-prozor)" opacity="0.88"/><rect x="269.0" y="209.0" width="69.0" height="36.0" rx="3" fill="var(--m-zgrada)" stroke="var(--m-ivica)" stroke-width="1"/><rect x="269.0" y="209.0" width="69.0" height="4.0" rx="2" fill="var(--m-krov)" opacity=".7"/><rect x="291.0" y="220.0" width="5.0" height="5.0" rx="1" fill="var(--m-prozor)" opacity="0.74"/><rect x="306.0" y="220.0" width="5.0" height="5.0" rx="1" fill="var(--m-prozor)" opacity="0.87"/><rect x="321.0" y="220.0" width="5.0" height="5.0" rx="1" fill="var(--m-prozor)" opacity="0.50"/><rect x="276.0" y="236.0" width="5.0" height="5.0" rx="1" fill="var(--m-prozor)" opacity="0.49"/><rect x="356.0" y="209.0" width="63.0" height="36.0" rx="3" fill="var(--m-zgrada)" stroke="var(--m-ivica)" stroke-width="1"/><rect x="356.0" y="209.0" width="63.0" height="4.0" rx="2" fill="var(--m-krov)" opacity=".7"/><rect x="378.0" y="220.0" width="5.0" height="5.0" rx="1" fill="var(--m-prozor)" opacity="0.75"/><rect x="393.0" y="220.0" width="5.0" height="5.0" rx="1" fill="var(--m-prozor)" opacity="0.49"/><rect x="363.0" y="236.0" width="5.0" height="5.0" rx="1" fill="var(--m-prozor)" opacity="0.39"/><rect x="393.0" y="236.0" width="5.0" height="5.0" rx="1" fill="var(--m-prozor)" opacity="0.75"/><rect x="408.0" y="236.0" width="5.0" height="5.0" rx="1" fill="var(--m-prozor)" opacity="0.89"/><rect x="576.0" y="209.0" width="82.0" height="37.0" rx="3" fill="var(--m-zgrada)" stroke="var(--m-ivica)" stroke-width="1"/><rect x="576.0" y="209.0" width="82.0" height="4.0" rx="2" fill="var(--m-krov)" opacity=".7"/><rect x="583.0" y="220.0" width="5.0" height="5.0" rx="1" fill="var(--m-prozor)" opacity="0.91"/><rect x="598.0" y="220.0" width="5.0" height="5.0" rx="1" fill="var(--m-prozor)" opacity="0.91"/><rect x="613.0" y="220.0" width="5.0" height="5.0" rx="1" fill="var(--m-prozor)" opacity="0.46"/><rect x="583.0" y="236.0" width="5.0" height="5.0" rx="1" fill="var(--m-prozor)" opacity="0.73"/><rect x="628.0" y="236.0" width="5.0" height="5.0" rx="1" fill="var(--m-prozor)" opacity="0.87"/><rect x="677.0" y="210.0" width="64.0" height="40.0" rx="3" fill="var(--m-zgrada)" stroke="var(--m-ivica)" stroke-width="1"/><rect x="677.0" y="210.0" width="64.0" height="4.0" rx="2" fill="var(--m-krov)" opacity=".7"/><rect x="699.0" y="221.0" width="5.0" height="5.0" rx="1" fill="var(--m-prozor)" opacity="0.82"/><rect x="714.0" y="221.0" width="5.0" height="5.0" rx="1" fill="var(--m-prozor)" opacity="0.81"/><rect x="684.0" y="237.0" width="5.0" height="5.0" rx="1" fill="var(--m-prozor)" opacity="0.68"/><rect x="699.0" y="237.0" width="5.0" height="5.0" rx="1" fill="var(--m-prozor)" opacity="0.49"/><rect x="729.0" y="237.0" width="5.0" height="5.0" rx="1" fill="var(--m-prozor)" opacity="0.47"/><rect x="24.0" y="374.0" width="77.0" height="33.0" rx="3" fill="var(--m-zgrada)" stroke="var(--m-ivica)" stroke-width="1"/><rect x="24.0" y="374.0" width="77.0" height="4.0" rx="2" fill="var(--m-krov)" opacity=".7"/><rect x="31.0" y="385.0" width="5.0" height="5.0" rx="1" fill="var(--m-prozor)" opacity="0.58"/><rect x="46.0" y="385.0" width="5.0" height="5.0" rx="1" fill="var(--m-prozor)" opacity="0.77"/><rect x="76.0" y="385.0" width="5.0" height="5.0" rx="1" fill="var(--m-prozor)" opacity="0.58"/><rect x="91.0" y="385.0" width="5.0" height="5.0" rx="1" fill="var(--m-prozor)" opacity="0.60"/><rect x="31.0" y="401.0" width="5.0" height="5.0" rx="1" fill="var(--m-prozor)" opacity="0.79"/><rect x="61.0" y="401.0" width="5.0" height="5.0" rx="1" fill="var(--m-prozor)" opacity="0.49"/><rect x="91.0" y="401.0" width="5.0" height="5.0" rx="1" fill="var(--m-prozor)" opacity="0.39"/><rect x="208.0" y="363.0" width="55.0" height="41.0" rx="3" fill="var(--m-zgrada)" stroke="var(--m-ivica)" stroke-width="1"/><rect x="208.0" y="363.0" width="55.0" height="4.0" rx="2" fill="var(--m-krov)" opacity=".7"/><rect x="215.0" y="374.0" width="5.0" height="5.0" rx="1" fill="var(--m-prozor)" opacity="0.73"/><rect x="230.0" y="374.0" width="5.0" height="5.0" rx="1" fill="var(--m-prozor)" opacity="0.90"/><rect x="245.0" y="374.0" width="5.0" height="5.0" rx="1" fill="var(--m-prozor)" opacity="0.51"/><rect x="215.0" y="390.0" width="5.0" height="5.0" rx="1" fill="var(--m-prozor)" opacity="0.61"/><rect x="230.0" y="390.0" width="5.0" height="5.0" rx="1" fill="var(--m-prozor)" opacity="0.37"/><rect x="280.0" y="360.0" width="44.0" height="57.0" rx="3" fill="var(--m-zgrada)" stroke="var(--m-ivica)" stroke-width="1"/><rect x="280.0" y="360.0" width="44.0" height="4.0" rx="2" fill="var(--m-krov)" opacity=".7"/><rect x="287.0" y="371.0" width="5.0" height="5.0" rx="1" fill="var(--m-prozor)" opacity="0.72"/><rect x="302.0" y="371.0" width="5.0" height="5.0" rx="1" fill="var(--m-prozor)" opacity="0.62"/><rect x="302.0" y="387.0" width="5.0" height="5.0" rx="1" fill="var(--m-prozor)" opacity="0.88"/><rect x="287.0" y="403.0" width="5.0" height="5.0" rx="1" fill="var(--m-prozor)" opacity="0.57"/><rect x="302.0" y="403.0" width="5.0" height="5.0" rx="1" fill="var(--m-prozor)" opacity="0.68"/><rect x="341.0" y="360.0" width="54.0" height="52.0" rx="3" fill="var(--m-zgrada)" stroke="var(--m-ivica)" stroke-width="1"/><rect x="341.0" y="360.0" width="54.0" height="4.0" rx="2" fill="var(--m-krov)" opacity=".7"/><rect x="348.0" y="371.0" width="5.0" height="5.0" rx="1" fill="var(--m-prozor)" opacity="0.78"/><rect x="378.0" y="371.0" width="5.0" height="5.0" rx="1" fill="var(--m-prozor)" opacity="0.36"/><rect x="348.0" y="387.0" width="5.0" height="5.0" rx="1" fill="var(--m-prozor)" opacity="0.87"/><rect x="363.0" y="387.0" width="5.0" height="5.0" rx="1" fill="var(--m-prozor)" opacity="0.90"/><rect x="348.0" y="403.0" width="5.0" height="5.0" rx="1" fill="var(--m-prozor)" opacity="0.64"/><rect x="410.0" y="360.0" width="47.0" height="48.0" rx="3" fill="var(--m-zgrada)" stroke="var(--m-ivica)" stroke-width="1"/><rect x="410.0" y="360.0" width="47.0" height="4.0" rx="2" fill="var(--m-krov)" opacity=".7"/><rect x="417.0" y="387.0" width="5.0" height="5.0" rx="1" fill="var(--m-prozor)" opacity="0.62"/><rect x="432.0" y="387.0" width="5.0" height="5.0" rx="1" fill="var(--m-prozor)" opacity="0.88"/><rect x="417.0" y="403.0" width="5.0" height="5.0" rx="1" fill="var(--m-prozor)" opacity="0.67"/><rect x="432.0" y="403.0" width="5.0" height="5.0" rx="1" fill="var(--m-prozor)" opacity="0.55"/><rect x="576.0" y="361.0" width="54.0" height="52.0" rx="3" fill="var(--m-zgrada)" stroke="var(--m-ivica)" stroke-width="1"/><rect x="576.0" y="361.0" width="54.0" height="4.0" rx="2" fill="var(--m-krov)" opacity=".7"/><rect x="583.0" y="404.0" width="5.0" height="5.0" rx="1" fill="var(--m-prozor)" opacity="0.41"/><rect x="652.0" y="360.0" width="57.0" height="58.0" rx="3" fill="var(--m-zgrada)" stroke="var(--m-ivica)" stroke-width="1"/><rect x="652.0" y="360.0" width="57.0" height="4.0" rx="2" fill="var(--m-krov)" opacity=".7"/><rect x="659.0" y="387.0" width="5.0" height="5.0" rx="1" fill="var(--m-prozor)" opacity="0.64"/><rect x="674.0" y="387.0" width="5.0" height="5.0" rx="1" fill="var(--m-prozor)" opacity="0.93"/><rect x="659.0" y="403.0" width="5.0" height="5.0" rx="1" fill="var(--m-prozor)" opacity="0.56"/><rect x="674.0" y="403.0" width="5.0" height="5.0" rx="1" fill="var(--m-prozor)" opacity="0.72"/><rect x="689.0" y="403.0" width="5.0" height="5.0" rx="1" fill="var(--m-prozor)" opacity="0.62"/><rect x="725.0" y="373.0" width="38.0" height="31.0" rx="3" fill="var(--m-zgrada)" stroke="var(--m-ivica)" stroke-width="1"/><rect x="725.0" y="373.0" width="38.0" height="4.0" rx="2" fill="var(--m-krov)" opacity=".7"/><rect x="732.0" y="384.0" width="5.0" height="5.0" rx="1" fill="var(--m-prozor)" opacity="0.84"/><rect x="747.0" y="384.0" width="5.0" height="5.0" rx="1" fill="var(--m-prozor)" opacity="0.60"/><rect x="24.0" y="470.0" width="66.0" height="36.0" rx="3" fill="var(--m-zgrada)" stroke="var(--m-ivica)" stroke-width="1"/><rect x="24.0" y="470.0" width="66.0" height="4.0" rx="2" fill="var(--m-krov)" opacity=".7"/><rect x="46.0" y="497.0" width="5.0" height="5.0" rx="1" fill="var(--m-prozor)" opacity="0.42"/><rect x="61.0" y="497.0" width="5.0" height="5.0" rx="1" fill="var(--m-prozor)" opacity="0.95"/><rect x="76.0" y="497.0" width="5.0" height="5.0" rx="1" fill="var(--m-prozor)" opacity="0.54"/><rect x="114.0" y="483.0" width="40.0" height="24.0" rx="3" fill="var(--m-zgrada)" stroke="var(--m-ivica)" stroke-width="1"/><rect x="114.0" y="483.0" width="40.0" height="4.0" rx="2" fill="var(--m-krov)" opacity=".7"/><rect x="206.0" y="465.0" width="65.0" height="28.0" rx="3" fill="var(--m-zgrada)" stroke="var(--m-ivica)" stroke-width="1"/><rect x="206.0" y="465.0" width="65.0" height="4.0" rx="2" fill="var(--m-krov)" opacity=".7"/><rect x="213.0" y="476.0" width="5.0" height="5.0" rx="1" fill="var(--m-prozor)" opacity="0.63"/><rect x="243.0" y="476.0" width="5.0" height="5.0" rx="1" fill="var(--m-prozor)" opacity="0.74"/><rect x="258.0" y="476.0" width="5.0" height="5.0" rx="1" fill="var(--m-prozor)" opacity="0.84"/><rect x="282.0" y="462.0" width="39.0" height="34.0" rx="3" fill="var(--m-zgrada)" stroke="var(--m-ivica)" stroke-width="1"/><rect x="282.0" y="462.0" width="39.0" height="4.0" rx="2" fill="var(--m-krov)" opacity=".7"/><rect x="289.0" y="473.0" width="5.0" height="5.0" rx="1" fill="var(--m-prozor)" opacity="0.40"/><rect x="289.0" y="489.0" width="5.0" height="5.0" rx="1" fill="var(--m-prozor)" opacity="0.92"/><rect x="344.0" y="465.0" width="71.0" height="30.0" rx="3" fill="var(--m-zgrada)" stroke="var(--m-ivica)" stroke-width="1"/><rect x="344.0" y="465.0" width="71.0" height="4.0" rx="2" fill="var(--m-krov)" opacity=".7"/><rect x="351.0" y="476.0" width="5.0" height="5.0" rx="1" fill="var(--m-prozor)" opacity="0.49"/><rect x="366.0" y="476.0" width="5.0" height="5.0" rx="1" fill="var(--m-prozor)" opacity="0.37"/><rect x="576.0" y="472.0" width="75.0" height="26.0" rx="3" fill="var(--m-zgrada)" stroke="var(--m-ivica)" stroke-width="1"/><rect x="576.0" y="472.0" width="75.0" height="4.0" rx="2" fill="var(--m-krov)" opacity=".7"/><rect x="583.0" y="483.0" width="5.0" height="5.0" rx="1" fill="var(--m-prozor)" opacity="0.44"/><rect x="613.0" y="483.0" width="5.0" height="5.0" rx="1" fill="var(--m-prozor)" opacity="0.69"/><rect x="628.0" y="483.0" width="5.0" height="5.0" rx="1" fill="var(--m-prozor)" opacity="0.64"/><rect x="643.0" y="483.0" width="5.0" height="5.0" rx="1" fill="var(--m-prozor)" opacity="0.58"/><rect x="670.0" y="474.0" width="44.0" height="33.0" rx="3" fill="var(--m-zgrada)" stroke="var(--m-ivica)" stroke-width="1"/><rect x="670.0" y="474.0" width="44.0" height="4.0" rx="2" fill="var(--m-krov)" opacity=".7"/><rect x="692.0" y="485.0" width="5.0" height="5.0" rx="1" fill="var(--m-prozor)" opacity="0.78"/><rect x="677.0" y="501.0" width="5.0" height="5.0" rx="1" fill="var(--m-prozor)" opacity="0.51"/><rect x="692.0" y="501.0" width="5.0" height="5.0" rx="1" fill="var(--m-prozor)" opacity="0.59"/><rect x="736.0" y="465.0" width="40.0" height="36.0" rx="3" fill="var(--m-zgrada)" stroke="var(--m-ivica)" stroke-width="1"/><rect x="736.0" y="465.0" width="40.0" height="4.0" rx="2" fill="var(--m-krov)" opacity=".7"/><circle cx="61.5" cy="198.0" r="9.0" fill="#0a1410" opacity=".6"/><circle cx="60.0" cy="196.0" r="9.0" fill="var(--m-zelenilo-2)"/><circle cx="57.3" cy="193.3" r="4.5" fill="var(--m-zelenilo-3)" opacity=".7"/><circle cx="97.5" cy="198.0" r="9.0" fill="#0a1410" opacity=".6"/><circle cx="96.0" cy="196.0" r="9.0" fill="var(--m-zelenilo-2)"/><circle cx="93.3" cy="193.3" r="4.5" fill="var(--m-zelenilo-3)" opacity=".7"/><circle cx="341.5" cy="198.0" r="9.0" fill="#0a1410" opacity=".6"/><circle cx="340.0" cy="196.0" r="9.0" fill="var(--m-zelenilo-2)"/><circle cx="337.3" cy="193.3" r="4.5" fill="var(--m-zelenilo-3)" opacity=".7"/><circle cx="377.5" cy="198.0" r="9.0" fill="#0a1410" opacity=".6"/><circle cx="376.0" cy="196.0" r="9.0" fill="var(--m-zelenilo-2)"/><circle cx="373.3" cy="193.3" r="4.5" fill="var(--m-zelenilo-3)" opacity=".7"/><circle cx="621.5" cy="198.0" r="9.0" fill="#0a1410" opacity=".6"/><circle cx="620.0" cy="196.0" r="9.0" fill="var(--m-zelenilo-2)"/><circle cx="617.3" cy="193.3" r="4.5" fill="var(--m-zelenilo-3)" opacity=".7"/><circle cx="657.5" cy="198.0" r="9.0" fill="#0a1410" opacity=".6"/><circle cx="656.0" cy="196.0" r="9.0" fill="var(--m-zelenilo-2)"/><circle cx="653.3" cy="193.3" r="4.5" fill="var(--m-zelenilo-3)" opacity=".7"/><circle cx="61.5" cy="346.0" r="9.0" fill="#0a1410" opacity=".6"/><circle cx="60.0" cy="344.0" r="9.0" fill="var(--m-zelenilo-2)"/><circle cx="57.3" cy="341.3" r="4.5" fill="var(--m-zelenilo-3)" opacity=".7"/><circle cx="341.5" cy="346.0" r="9.0" fill="#0a1410" opacity=".6"/><circle cx="340.0" cy="344.0" r="9.0" fill="var(--m-zelenilo-2)"/><circle cx="337.3" cy="341.3" r="4.5" fill="var(--m-zelenilo-3)" opacity=".7"/><circle cx="701.5" cy="346.0" r="9.0" fill="#0a1410" opacity=".6"/><circle cx="700.0" cy="344.0" r="9.0" fill="var(--m-zelenilo-2)"/><circle cx="697.3" cy="341.3" r="4.5" fill="var(--m-zelenilo-3)" opacity=".7"/><circle cx="121.5" cy="454.0" r="9.0" fill="#0a1410" opacity=".6"/><circle cx="120.0" cy="452.0" r="9.0" fill="var(--m-zelenilo-2)"/><circle cx="117.3" cy="449.3" r="4.5" fill="var(--m-zelenilo-3)" opacity=".7"/><circle cx="701.5" cy="454.0" r="9.0" fill="#0a1410" opacity=".6"/><circle cx="700.0" cy="452.0" r="9.0" fill="var(--m-zelenilo-2)"/><circle cx="697.3" cy="449.3" r="4.5" fill="var(--m-zelenilo-3)" opacity=".7"/><rect x="211.0" y="258.0" width="2.0" height="12.0" fill="#7d8896"/><path d="M212.0 243.0 L219.0 256.0 L205.0 256.0 Z" fill="#e8edf3" stroke="#d81f2a" stroke-width="2.4"/><rect x="469.0" y="258.0" width="2.0" height="12.0" fill="#7d8896"/><circle cx="470.0" cy="250.0" r="7.0" fill="#d81f2a" stroke="#e8edf3" stroke-width="2"/><rect x="607.0" y="344.0" width="2.0" height="12.0" fill="#7d8896"/><rect x="602.0" y="329.0" width="12.0" height="13.0" rx="2" fill="#1b3a8f" stroke="#e8edf3" stroke-width="1.6"/><rect x="147.0" y="344.0" width="2.0" height="12.0" fill="#7d8896"/><path d="M148.0 329.0 L155.0 342.0 L141.0 342.0 Z" fill="#e8edf3" stroke="#d81f2a" stroke-width="2.4"/><g transform="translate(240.0 246.0) rotate(0)"><rect x="-9.0" y="-5.0" width="18.0" height="10.0" rx="2.5" fill="#8f9aa8"/><rect x="-4.5" y="-3.6" width="8.0" height="7.2" rx="1.5" fill="#16324f"/><rect x="7.4" y="-3.4" width="2.4" height="2.4" rx="1" fill="#ffe6a8"/><rect x="7.4" y="1.0" width="2.4" height="2.4" rx="1" fill="#ffe6a8"/></g><g transform="translate(268.0 246.0) rotate(0)"><rect x="-9.0" y="-5.0" width="18.0" height="10.0" rx="2.5" fill="#8f9aa8"/><rect x="-4.5" y="-3.6" width="8.0" height="7.2" rx="1.5" fill="#16324f"/><rect x="7.4" y="-3.4" width="2.4" height="2.4" rx="1" fill="#ffe6a8"/><rect x="7.4" y="1.0" width="2.4" height="2.4" rx="1" fill="#ffe6a8"/></g><g transform="translate(296.0 246.0) rotate(0)"><rect x="-9.0" y="-5.0" width="18.0" height="10.0" rx="2.5" fill="#8f9aa8"/><rect x="-4.5" y="-3.6" width="8.0" height="7.2" rx="1.5" fill="#16324f"/><rect x="7.4" y="-3.4" width="2.4" height="2.4" rx="1" fill="#ffe6a8"/><rect x="7.4" y="1.0" width="2.4" height="2.4" rx="1" fill="#ffe6a8"/></g><g transform="translate(640.0 352.0) rotate(180)"><rect x="-9.0" y="-5.0" width="18.0" height="10.0" rx="2.5" fill="#8f9aa8"/><rect x="-4.5" y="-3.6" width="8.0" height="7.2" rx="1.5" fill="#16324f"/><rect x="7.4" y="-3.4" width="2.4" height="2.4" rx="1" fill="#ffe6a8"/><rect x="7.4" y="1.0" width="2.4" height="2.4" rx="1" fill="#ffe6a8"/></g><g transform="translate(668.0 352.0) rotate(180)"><rect x="-9.0" y="-5.0" width="18.0" height="10.0" rx="2.5" fill="#8f9aa8"/><rect x="-4.5" y="-3.6" width="8.0" height="7.2" rx="1.5" fill="#16324f"/><rect x="7.4" y="-3.4" width="2.4" height="2.4" rx="1" fill="#ffe6a8"/><rect x="7.4" y="1.0" width="2.4" height="2.4" rx="1" fill="#ffe6a8"/></g><g transform="translate(96.0 352.0) rotate(180)"><rect x="-9.0" y="-5.0" width="18.0" height="10.0" rx="2.5" fill="#8f9aa8"/><rect x="-4.5" y="-3.6" width="8.0" height="7.2" rx="1.5" fill="#16324f"/><rect x="7.4" y="-3.4" width="2.4" height="2.4" rx="1" fill="#ffe6a8"/><rect x="7.4" y="1.0" width="2.4" height="2.4" rx="1" fill="#ffe6a8"/></g><g class="mapa__pin"><ellipse cx="300.0" cy="216.0" rx="16" ry="5" fill="#000" opacity=".45"/><path d="M300.0 214.0 c0 -13 -11 -17 -11 -28 a11 11 0 0 1 22 0 c0 11 -11 15 -11 28z" fill="var(--migavac)" stroke="#0b0d10" stroke-width="1.5"/><circle cx="300.0" cy="185.0" r="6.4" fill="#0b0d10"/><text x="300.0" y="188.4" text-anchor="middle" font-family="Antonio, sans-serif" font-size="9" font-weight="700" fill="var(--migavac)">D</text><rect x="234.0" y="224.0" width="132" height="22" rx="11" fill="rgba(8,11,15,.88)" stroke="rgba(255,165,31,.5)"/><text x="300.0" y="238.5" text-anchor="middle" font-family="JetBrains Mono, monospace" font-size="9.5" letter-spacing="1" fill="#edeff2">AUTO ŠKOLA DULE</text></g><g class="mapa__vozilo mapa__vozilo--a"><g transform="translate(0.0 0.0) rotate(0)"><rect x="-9.0" y="-5.0" width="18.0" height="10.0" rx="2.5" fill="#dbe4ee"/><rect x="-4.5" y="-3.6" width="8.0" height="7.2" rx="1.5" fill="#16324f"/><rect x="7.4" y="-3.4" width="2.4" height="2.4" rx="1" fill="#ffe6a8"/><rect x="7.4" y="1.0" width="2.4" height="2.4" rx="1" fill="#ffe6a8"/></g></g><g class="mapa__vozilo mapa__vozilo--b"><g transform="translate(0.0 0.0) rotate(0)"><rect x="-9.0" y="-5.0" width="18.0" height="10.0" rx="2.5" fill="#ffc978"/><rect x="-4.5" y="-3.6" width="8.0" height="7.2" rx="1.5" fill="#16324f"/><rect x="7.4" y="-3.4" width="2.4" height="2.4" rx="1" fill="#ffe6a8"/><rect x="7.4" y="1.0" width="2.4" height="2.4" rx="1" fill="#ffe6a8"/></g></g></svg>