<svg class="mapa__crtez" viewBox="0 0 800 520" xmlns="http://www.w3.org/2000/svg" role="img" aria-label="Stilizovana ilustracija mape — poslovnica u Varvarinu">
  <style>
    svg {
      --m-podloga: #1d3a28; --m-asfalt: #242c34; --m-oznaka: #f2f6fa;
      --m-zgrada: #27313b; --m-krov: #354049; --m-ivica: #4a5661;
      --m-prozor: #ffc46b; --m-zelenilo: #4c9160; --m-zelenilo-2: #4f9966;
      --m-zelenilo-3: #74c48c; --migavac: #ffa51f;
      background: var(--m-podloga);
    }
    .mapa__vozilo { display: none; }
    @supports (offset-path: path("M0 0 H1")) {
      .mapa__vozilo {
        display: block; transform-box: view-box; transform-origin: 0 0;
        offset-rotate: auto; animation: vozi 17s linear infinite;
      }
      .mapa__vozilo--a { offset-path: path("M-30 313 H830"); }
      .mapa__vozilo--b { offset-path: path("M509 550 V-30"); animation-duration: 21s; animation-delay: -6s; }
      .mapa__vozilo--c { offset-path: path("M633 550 V352"); animation-duration: 13s; animation-delay: -3s; }
    }
    @keyframes vozi { from { offset-distance: 0%; } to { offset-distance: 100%; } }
    @media (prefers-reduced-motion: reduce) { .mapa__vozilo { animation: none; } }
  </style><defs><filter id="m-zrno-f2"><feTurbulence type="fractalNoise" baseFrequency="1.2" numOctaves="3"/></filter><pattern id="m-zrno2" width="120" height="120" patternUnits="userSpaceOnUse"><rect width="120" height="120" filter="url(#m-zrno-f2)" opacity=".22"/></pattern></defs><rect x="0.0" y="0.0" width="800.0" height="520.0" fill="var(--m-podloga)"/><rect x="0.0" y="0.0" width="800.0" height="520.0" fill="url(#m-zrno2)" opacity=".5"/><rect x="16.0" y="16.0" width="760.0" height="150.0" rx="6" fill="var(--m-zelenilo)" opacity=".55"/><rect x="16.0" y="214.0" width="270.0" height="120.0" rx="6" fill="var(--m-zelenilo)" opacity=".55"/><rect x="330.0" y="214.0" width="446.0" height="120.0" rx="6" fill="var(--m-zelenilo)" opacity=".55"/><rect x="16.0" y="404.0" width="760.0" height="100.0" rx="6" fill="var(--m-zelenilo)" opacity=".55"/><rect x="0.0" y="340.0" width="800.0" height="58.0" fill="var(--m-asfalt)"/><rect x="300.0" y="0.0" width="30.0" height="340.0" fill="var(--m-asfalt)"/><rect x="0.0" y="186.0" width="800.0" height="22.0" fill="var(--m-asfalt)"/><rect x="620.0" y="340.0" width="26.0" height="180.0" fill="var(--m-asfalt)"/><path d="M0 369 H800" stroke="var(--m-oznaka)" stroke-width="3.4" stroke-dasharray="26 20" opacity=".85"/><path d="M0 345 H800 M0 393 H800" stroke="var(--m-oznaka)" stroke-width="1.6" opacity=".32"/><path d="M315 0 V300" stroke="var(--m-oznaka)" stroke-width="2.6" stroke-dasharray="18 16" opacity=".7"/><rect x="299.4" y="343.0" width="3.2" height="52.0" fill="var(--m-oznaka)" opacity=".75"/><rect x="306.4" y="343.0" width="3.2" height="52.0" fill="var(--m-oznaka)" opacity=".75"/><rect x="313.4" y="343.0" width="3.2" height="52.0" fill="var(--m-oznaka)" opacity=".75"/><rect x="320.4" y="343.0" width="3.2" height="52.0" fill="var(--m-oznaka)" opacity=".75"/><rect x="327.4" y="343.0" width="3.2" height="52.0" fill="var(--m-oznaka)" opacity=".75"/><rect x="617.4" y="343.0" width="3.2" height="52.0" fill="var(--m-oznaka)" opacity=".75"/><rect x="624.4" y="343.0" width="3.2" height="52.0" fill="var(--m-oznaka)" opacity=".75"/><rect x="631.4" y="343.0" width="3.2" height="52.0" fill="var(--m-oznaka)" opacity=".75"/><rect x="638.4" y="343.0" width="3.2" height="52.0" fill="var(--m-oznaka)" opacity=".75"/><rect x="645.4" y="343.0" width="3.2" height="52.0" fill="var(--m-oznaka)" opacity=".75"/><path d="M26.0 52.0 L46.5 39.0 L67.0 52.0 Z" fill="var(--m-krov)"/><rect x="30.0" y="52.0" width="33.0" height="27.0" rx="2" fill="var(--m-zgrada)" stroke="var(--m-ivica)" stroke-width="1"/><rect x="39.9" y="60.0" width="6.0" height="6.0" rx="1" fill="var(--m-prozor)" opacity="0.86"/><path d="M88.0 53.0 L115.0 40.0 L142.0 53.0 Z" fill="var(--m-krov)"/><rect x="92.0" y="53.0" width="46.0" height="22.0" rx="2" fill="var(--m-zgrada)" stroke="var(--m-ivica)" stroke-width="1"/><rect x="105.8" y="61.0" width="6.0" height="6.0" rx="1" fill="var(--m-prozor)" opacity="0.60"/><path d="M164.0 89.0 L190.0 76.0 L216.0 89.0 Z" fill="var(--m-krov)"/><rect x="168.0" y="89.0" width="44.0" height="28.0" rx="2" fill="var(--m-zgrada)" stroke="var(--m-ivica)" stroke-width="1"/><path d="M228.0 89.0 L254.0 76.0 L280.0 89.0 Z" fill="var(--m-krov)"/><rect x="232.0" y="89.0" width="44.0" height="26.0" rx="2" fill="var(--m-zgrada)" stroke="var(--m-ivica)" stroke-width="1"/><rect x="245.2" y="97.0" width="6.0" height="6.0" rx="1" fill="var(--m-prozor)" opacity="0.64"/><path d="M346.0 70.0 L369.0 57.0 L392.0 70.0 Z" fill="var(--m-krov)"/><rect x="350.0" y="70.0" width="38.0" height="25.0" rx="2" fill="var(--m-zgrada)" stroke="var(--m-ivica)" stroke-width="1"/><rect x="361.4" y="78.0" width="6.0" height="6.0" rx="1" fill="var(--m-prozor)" opacity="0.89"/><path d="M406.0 98.0 L430.5 85.0 L455.0 98.0 Z" fill="var(--m-krov)"/><rect x="410.0" y="98.0" width="41.0" height="22.0" rx="2" fill="var(--m-zgrada)" stroke="var(--m-ivica)" stroke-width="1"/><rect x="422.3" y="106.0" width="6.0" height="6.0" rx="1" fill="var(--m-prozor)" opacity="0.66"/><path d="M476.0 87.0 L495.5 74.0 L515.0 87.0 Z" fill="var(--m-krov)"/><rect x="480.0" y="87.0" width="31.0" height="30.0" rx="2" fill="var(--m-zgrada)" stroke="var(--m-ivica)" stroke-width="1"/><path d="M530.0 98.0 L554.5 85.0 L579.0 98.0 Z" fill="var(--m-krov)"/><rect x="534.0" y="98.0" width="41.0" height="30.0" rx="2" fill="var(--m-zgrada)" stroke="var(--m-ivica)" stroke-width="1"/><path d="M597.0 51.0 L621.0 38.0 L645.0 51.0 Z" fill="var(--m-krov)"/><rect x="601.0" y="51.0" width="40.0" height="22.0" rx="2" fill="var(--m-zgrada)" stroke="var(--m-ivica)" stroke-width="1"/><rect x="613.0" y="59.0" width="6.0" height="6.0" rx="1" fill="var(--m-prozor)" opacity="0.68"/><path d="M653.0 78.0 L678.0 65.0 L703.0 78.0 Z" fill="var(--m-krov)"/><rect x="657.0" y="78.0" width="42.0" height="29.0" rx="2" fill="var(--m-zgrada)" stroke="var(--m-ivica)" stroke-width="1"/><rect x="669.6" y="86.0" width="6.0" height="6.0" rx="1" fill="var(--m-prozor)" opacity="0.49"/><path d="M716.0 79.0 L738.0 66.0 L760.0 79.0 Z" fill="var(--m-krov)"/><rect x="720.0" y="79.0" width="36.0" height="22.0" rx="2" fill="var(--m-zgrada)" stroke="var(--m-ivica)" stroke-width="1"/><rect x="730.8" y="87.0" width="6.0" height="6.0" rx="1" fill="var(--m-prozor)" opacity="0.79"/><path d="M26.0 234.0 L51.5 221.0 L77.0 234.0 Z" fill="var(--m-krov)"/><rect x="30.0" y="234.0" width="43.0" height="30.0" rx="2" fill="var(--m-zgrada)" stroke="var(--m-ivica)" stroke-width="1"/><rect x="42.9" y="242.0" width="6.0" height="6.0" rx="1" fill="var(--m-prozor)" opacity="0.85"/><path d="M87.0 268.0 L111.0 255.0 L135.0 268.0 Z" fill="var(--m-krov)"/><rect x="91.0" y="268.0" width="40.0" height="27.0" rx="2" fill="var(--m-zgrada)" stroke="var(--m-ivica)" stroke-width="1"/><path d="M150.0 234.0 L174.5 221.0 L199.0 234.0 Z" fill="var(--m-krov)"/><rect x="154.0" y="234.0" width="41.0" height="22.0" rx="2" fill="var(--m-zgrada)" stroke="var(--m-ivica)" stroke-width="1"/><rect x="166.3" y="242.0" width="6.0" height="6.0" rx="1" fill="var(--m-prozor)" opacity="0.74"/><path d="M216.0 262.0 L235.0 249.0 L254.0 262.0 Z" fill="var(--m-krov)"/><rect x="220.0" y="262.0" width="30.0" height="30.0" rx="2" fill="var(--m-zgrada)" stroke="var(--m-ivica)" stroke-width="1"/><path d="M346.0 271.0 L371.0 258.0 L396.0 271.0 Z" fill="var(--m-krov)"/><rect x="350.0" y="271.0" width="42.0" height="25.0" rx="2" fill="var(--m-zgrada)" stroke="var(--m-ivica)" stroke-width="1"/><path d="M416.0 242.0 L435.5 229.0 L455.0 242.0 Z" fill="var(--m-krov)"/><rect x="420.0" y="242.0" width="31.0" height="23.0" rx="2" fill="var(--m-zgrada)" stroke="var(--m-ivica)" stroke-width="1"/><path d="M464.0 285.0 L486.0 272.0 L508.0 285.0 Z" fill="var(--m-krov)"/><rect x="468.0" y="285.0" width="36.0" height="22.0" rx="2" fill="var(--m-zgrada)" stroke="var(--m-ivica)" stroke-width="1"/><rect x="478.8" y="293.0" width="6.0" height="6.0" rx="1" fill="var(--m-prozor)" opacity="0.45"/><path d="M527.0 245.0 L549.5 232.0 L572.0 245.0 Z" fill="var(--m-krov)"/><rect x="531.0" y="245.0" width="37.0" height="23.0" rx="2" fill="var(--m-zgrada)" stroke="var(--m-ivica)" stroke-width="1"/><rect x="542.1" y="253.0" width="6.0" height="6.0" rx="1" fill="var(--m-prozor)" opacity="0.52"/><path d="M56.0 441.0 L82.5 428.0 L109.0 441.0 Z" fill="var(--m-krov)"/><rect x="60.0" y="441.0" width="45.0" height="22.0" rx="2" fill="var(--m-zgrada)" stroke="var(--m-ivica)" stroke-width="1"/><rect x="73.5" y="449.0" width="6.0" height="6.0" rx="1" fill="var(--m-prozor)" opacity="0.83"/><path d="M125.0 454.0 L151.0 441.0 L177.0 454.0 Z" fill="var(--m-krov)"/><rect x="129.0" y="454.0" width="44.0" height="27.0" rx="2" fill="var(--m-zgrada)" stroke="var(--m-ivica)" stroke-width="1"/><rect x="142.2" y="462.0" width="6.0" height="6.0" rx="1" fill="var(--m-prozor)" opacity="0.89"/><path d="M193.0 462.0 L219.5 449.0 L246.0 462.0 Z" fill="var(--m-krov)"/><rect x="197.0" y="462.0" width="45.0" height="22.0" rx="2" fill="var(--m-zgrada)" stroke="var(--m-ivica)" stroke-width="1"/><rect x="210.5" y="470.0" width="6.0" height="6.0" rx="1" fill="var(--m-prozor)" opacity="0.62"/><path d="M261.0 432.0 L288.0 419.0 L315.0 432.0 Z" fill="var(--m-krov)"/><rect x="265.0" y="432.0" width="46.0" height="23.0" rx="2" fill="var(--m-zgrada)" stroke="var(--m-ivica)" stroke-width="1"/><rect x="278.8" y="440.0" width="6.0" height="6.0" rx="1" fill="var(--m-prozor)" opacity="0.89"/><path d="M323.0 429.0 L347.0 416.0 L371.0 429.0 Z" fill="var(--m-krov)"/><rect x="327.0" y="429.0" width="40.0" height="26.0" rx="2" fill="var(--m-zgrada)" stroke="var(--m-ivica)" stroke-width="1"/><rect x="339.0" y="437.0" width="6.0" height="6.0" rx="1" fill="var(--m-prozor)" opacity="0.82"/><path d="M381.0 454.0 L401.0 441.0 L421.0 454.0 Z" fill="var(--m-krov)"/><rect x="385.0" y="454.0" width="32.0" height="22.0" rx="2" fill="var(--m-zgrada)" stroke="var(--m-ivica)" stroke-width="1"/><path d="M433.0 428.0 L460.0 415.0 L487.0 428.0 Z" fill="var(--m-krov)"/><rect x="437.0" y="428.0" width="46.0" height="24.0" rx="2" fill="var(--m-zgrada)" stroke="var(--m-ivica)" stroke-width="1"/><rect x="450.8" y="436.0" width="6.0" height="6.0" rx="1" fill="var(--m-prozor)" opacity="0.64"/><path d="M497.0 443.0 L518.5 430.0 L540.0 443.0 Z" fill="var(--m-krov)"/><rect x="501.0" y="443.0" width="35.0" height="29.0" rx="2" fill="var(--m-zgrada)" stroke="var(--m-ivica)" stroke-width="1"/><rect x="511.5" y="451.0" width="6.0" height="6.0" rx="1" fill="var(--m-prozor)" opacity="0.58"/><rect x="660.0" y="244.0" width="81.0" height="25.0" rx="3" fill="var(--m-zgrada)" stroke="var(--m-ivica)" stroke-width="1"/><rect x="660.0" y="244.0" width="81.0" height="4.0" rx="2" fill="var(--m-krov)" opacity=".7"/><rect x="667.0" y="255.0" width="5.0" height="5.0" rx="1" fill="var(--m-prozor)" opacity="0.36"/><rect x="727.0" y="255.0" width="5.0" height="5.0" rx="1" fill="var(--m-prozor)" opacity="0.47"/><circle cx="41.5" cy="170.0" r="10.0" fill="#0a1410" opacity=".6"/><circle cx="40.0" cy="168.0" r="10.0" fill="var(--m-zelenilo-2)"/><circle cx="37.0" cy="165.0" r="5.0" fill="var(--m-zelenilo-3)" opacity=".7"/><circle cx="77.5" cy="170.0" r="10.0" fill="#0a1410" opacity=".6"/><circle cx="76.0" cy="168.0" r="10.0" fill="var(--m-zelenilo-2)"/><circle cx="73.0" cy="165.0" r="5.0" fill="var(--m-zelenilo-3)" opacity=".7"/><circle cx="113.5" cy="170.0" r="10.0" fill="#0a1410" opacity=".6"/><circle cx="112.0" cy="168.0" r="10.0" fill="var(--m-zelenilo-2)"/><circle cx="109.0" cy="165.0" r="5.0" fill="var(--m-zelenilo-3)" opacity=".7"/><circle cx="431.5" cy="170.0" r="10.0" fill="#0a1410" opacity=".6"/><circle cx="430.0" cy="168.0" r="10.0" fill="var(--m-zelenilo-2)"/><circle cx="427.0" cy="165.0" r="5.0" fill="var(--m-zelenilo-3)" opacity=".7"/><circle cx="467.5" cy="170.0" r="10.0" fill="#0a1410" opacity=".6"/><circle cx="466.0" cy="168.0" r="10.0" fill="var(--m-zelenilo-2)"/><circle cx="463.0" cy="165.0" r="5.0" fill="var(--m-zelenilo-3)" opacity=".7"/><circle cx="701.5" cy="170.0" r="10.0" fill="#0a1410" opacity=".6"/><circle cx="700.0" cy="168.0" r="10.0" fill="var(--m-zelenilo-2)"/><circle cx="697.0" cy="165.0" r="5.0" fill="var(--m-zelenilo-3)" opacity=".7"/><circle cx="737.5" cy="170.0" r="10.0" fill="#0a1410" opacity=".6"/><circle cx="736.0" cy="168.0" r="10.0" fill="var(--m-zelenilo-2)"/><circle cx="733.0" cy="165.0" r="5.0" fill="var(--m-zelenilo-3)" opacity=".7"/><circle cx="45.5" cy="332.0" r="10.0" fill="#0a1410" opacity=".6"/><circle cx="44.0" cy="330.0" r="10.0" fill="var(--m-zelenilo-2)"/><circle cx="41.0" cy="327.0" r="5.0" fill="var(--m-zelenilo-3)" opacity=".7"/><circle cx="85.5" cy="332.0" r="10.0" fill="#0a1410" opacity=".6"/><circle cx="84.0" cy="330.0" r="10.0" fill="var(--m-zelenilo-2)"/><circle cx="81.0" cy="327.0" r="5.0" fill="var(--m-zelenilo-3)" opacity=".7"/><circle cx="361.5" cy="332.0" r="10.0" fill="#0a1410" opacity=".6"/><circle cx="360.0" cy="330.0" r="10.0" fill="var(--m-zelenilo-2)"/><circle cx="357.0" cy="327.0" r="5.0" fill="var(--m-zelenilo-3)" opacity=".7"/><circle cx="701.5" cy="412.0" r="10.0" fill="#0a1410" opacity=".6"/><circle cx="700.0" cy="410.0" r="10.0" fill="var(--m-zelenilo-2)"/><circle cx="697.0" cy="407.0" r="5.0" fill="var(--m-zelenilo-3)" opacity=".7"/><circle cx="737.5" cy="412.0" r="10.0" fill="#0a1410" opacity=".6"/><circle cx="736.0" cy="410.0" r="10.0" fill="var(--m-zelenilo-2)"/><circle cx="733.0" cy="407.0" r="5.0" fill="var(--m-zelenilo-3)" opacity=".7"/><circle cx="601.5" cy="472.0" r="10.0" fill="#0a1410" opacity=".6"/><circle cx="600.0" cy="470.0" r="10.0" fill="var(--m-zelenilo-2)"/><circle cx="597.0" cy="467.0" r="5.0" fill="var(--m-zelenilo-3)" opacity=".7"/><circle cx="641.5" cy="472.0" r="10.0" fill="#0a1410" opacity=".6"/><circle cx="640.0" cy="470.0" r="10.0" fill="var(--m-zelenilo-2)"/><circle cx="637.0" cy="467.0" r="5.0" fill="var(--m-zelenilo-3)" opacity=".7"/><circle cx="181.5" cy="412.0" r="10.0" fill="#0a1410" opacity=".6"/><circle cx="180.0" cy="410.0" r="10.0" fill="var(--m-zelenilo-2)"/><circle cx="177.0" cy="407.0" r="5.0" fill="var(--m-zelenilo-3)" opacity=".7"/><rect x="351.0" y="330.0" width="2.0" height="12.0" fill="#7d8896"/><path d="M352.0 315.0 L359.0 328.0 L345.0 328.0 Z" fill="#e8edf3" stroke="#d81f2a" stroke-width="2.4"/><rect x="275.0" y="330.0" width="2.0" height="12.0" fill="#7d8896"/><circle cx="276.0" cy="322.0" r="7.0" fill="#d81f2a" stroke="#e8edf3" stroke-width="2"/><rect x="667.0" y="424.0" width="2.0" height="12.0" fill="#7d8896"/><rect x="662.0" y="409.0" width="12.0" height="13.0" rx="2" fill="#1b3a8f" stroke="#e8edf3" stroke-width="1.6"/><g transform="translate(120.0 318.0) rotate(0)"><rect x="-9.0" y="-5.0" width="18.0" height="10.0" rx="2.5" fill="#8f9aa8"/><rect x="-4.5" y="-3.6" width="8.0" height="7.2" rx="1.5" fill="#16324f"/><rect x="7.4" y="-3.4" width="2.4" height="2.4" rx="1" fill="#ffe6a8"/><rect x="7.4" y="1.0" width="2.4" height="2.4" rx="1" fill="#ffe6a8"/></g><g transform="translate(152.0 318.0) rotate(0)"><rect x="-9.0" y="-5.0" width="18.0" height="10.0" rx="2.5" fill="#8f9aa8"/><rect x="-4.5" y="-3.6" width="8.0" height="7.2" rx="1.5" fill="#16324f"/><rect x="7.4" y="-3.4" width="2.4" height="2.4" rx="1" fill="#ffe6a8"/><rect x="7.4" y="1.0" width="2.4" height="2.4" rx="1" fill="#ffe6a8"/></g><g transform="translate(700.0 318.0) rotate(0)"><rect x="-9.0" y="-5.0" width="18.0" height="10.0" rx="2.5" fill="#8f9aa8"/><rect x="-4.5" y="-3.6" width="8.0" height="7.2" rx="1.5" fill="#16324f"/><rect x="7.4" y="-3.4" width="2.4" height="2.4" rx="1" fill="#ffe6a8"/><rect x="7.4" y="1.0" width="2.4" height="2.4" rx="1" fill="#ffe6a8"/></g><g class="mapa__pin"><ellipse cx="430.0" cy="302.0" rx="16" ry="5" fill="#000" opacity=".45"/><path d="M430.0 300.0 c0 -13 -11 -17 -11 -28 a11 11 0 0 1 22 0 c0 11 -11 15 -11 28z" fill="var(--migavac)" stroke="#0b0d10" stroke-width="1.5"/><circle cx="430.0" cy="271.0" r="6.4" fill="#0b0d10"/><text x="430.0" y="274.4" text-anchor="middle" font-family="Antonio, sans-serif" font-size="9" font-weight="700" fill="var(--migavac)">D</text><rect x="364.0" y="310.0" width="132" height="22" rx="11" fill="rgba(8,11,15,.88)" stroke="rgba(255,165,31,.5)"/><text x="430.0" y="324.5" text-anchor="middle" font-family="JetBrains Mono, monospace" font-size="9.5" letter-spacing="1" fill="#edeff2">AUTO ŠKOLA DULE</text></g><g class="mapa__vozilo mapa__vozilo--a"><g transform="translate(0.0 0.0) rotate(0)"><rect x="-9.0" y="-5.0" width="18.0" height="10.0" rx="2.5" fill="#dbe4ee"/><rect x="-4.5" y="-3.6" width="8.0" height="7.2" rx="1.5" fill="#16324f"/><rect x="7.4" y="-3.4" width="2.4" height="2.4" rx="1" fill="#ffe6a8"/><rect x="7.4" y="1.0" width="2.4" height="2.4" rx="1" fill="#ffe6a8"/></g></g><g class="mapa__vozilo mapa__vozilo--c"><g transform="translate(0.0 0.0) rotate(0)"><rect x="-9.0" y="-5.0" width="18.0" height="10.0" rx="2.5" fill="#ffc978"/><rect x="-4.5" y="-3.6" width="8.0" height="7.2" rx="1.5" fill="#16324f"/><rect x="7.4" y="-3.4" width="2.4" height="2.4" rx="1" fill="#ffe6a8"/><rect x="7.4" y="1.0" width="2.4" height="2.4" rx="1" fill="#ffe6a8"/></g></g></svg>