<svg class="dozvola-crtez" viewBox="0 0 1000 631" xmlns="http://www.w3.org/2000/svg" aria-hidden="true" focusable="false">
  <style>
    .dz-oznaka { font-family: "JetBrains Mono", ui-monospace, monospace; font-size: 15px;
                 letter-spacing: 1.5px; fill: rgba(255,255,255,.92); }
    .dz-linija { fill: rgba(255,255,255,.62); }
    .dz-drzava { font-family: "JetBrains Mono", ui-monospace, monospace; font-size: 20px;
                 letter-spacing: 5px; fill: #fff; }
    .dz-naslov { font-family: Antonio, Oswald, sans-serif; font-size: 44px; letter-spacing: 2px; fill: #fff; }
    .dz-prevod { font-family: "JetBrains Mono", ui-monospace, monospace; font-size: 14px;
                 letter-spacing: 2.5px; fill: rgba(255,255,255,.85); }
    .dz-srb    { font-family: Antonio, Oswald, sans-serif; font-size: 30px; fill: #fff; }
    .dz-kat    { font-family: Antonio, Oswald, sans-serif; font-size: 34px; fill: #fff; }
    .dz-primer { font-family: "JetBrains Mono", ui-monospace, monospace; font-size: 15px;
                 letter-spacing: 4px; fill: rgba(255,255,255,.8); }
  </style><defs><linearGradient id="dz-podloga" x1="0" y1="0" x2="1" y2="1"><stop offset="0" stop-color="#3f6bb5"/><stop offset=".45" stop-color="#a8619b"/><stop offset="1" stop-color="#c9666d"/></linearGradient><pattern id="dz-sara" width="26" height="26" patternUnits="userSpaceOnUse"><path d="M0 13 Q6.5 0 13 13 T26 13" fill="none" stroke="rgba(255,255,255,.3)" stroke-width="1.4"/></pattern></defs><rect x="0" y="0" width="1000" height="631" rx="34" fill="url(#dz-podloga)"/><rect x="0" y="0" width="1000" height="631" rx="34" fill="none" stroke="rgba(255,255,255,.72)" stroke-width="4"/><rect x="0" y="0" width="1000" height="631" rx="34" fill="url(#dz-sara)" opacity=".5"/><text x="52" y="74" class="dz-drzava">REPUBLIKA SRBIJA</text><text x="52" y="120" class="dz-naslov">VOZAČKA DOZVOLA</text><text x="52" y="146" class="dz-prevod">DRIVING LICENCE · PERMIS DE CONDUIRE</text><circle cx="906" cy="96" r="42" fill="#123a8f" stroke="rgba(255,255,255,.5)" stroke-width="2"/><text x="906" y="106" text-anchor="middle" class="dz-srb">SRB</text><circle cx="906.0" cy="66.0" r="3" fill="#ffd75e"/><circle cx="921.0" cy="70.0" r="3" fill="#ffd75e"/><circle cx="932.0" cy="81.0" r="3" fill="#ffd75e"/><circle cx="936.0" cy="96.0" r="3" fill="#ffd75e"/><circle cx="932.0" cy="111.0" r="3" fill="#ffd75e"/><circle cx="921.0" cy="122.0" r="3" fill="#ffd75e"/><circle cx="906.0" cy="126.0" r="3" fill="#ffd75e"/><circle cx="891.0" cy="122.0" r="3" fill="#ffd75e"/><circle cx="880.0" cy="111.0" r="3" fill="#ffd75e"/><circle cx="876.0" cy="96.0" r="3" fill="#ffd75e"/><circle cx="880.0" cy="81.0" r="3" fill="#ffd75e"/><circle cx="891.0" cy="70.0" r="3" fill="#ffd75e"/><rect x="52" y="192" width="196" height="248" rx="8" fill="rgba(10,16,28,.34)" stroke="rgba(255,255,255,.7)" stroke-width="2.5"/><circle cx="150" cy="288" r="46" fill="rgba(255,255,255,.4)"/><path d="M78 440c0-46 32-80 72-80s72 34 72 80z" fill="rgba(255,255,255,.4)"/><text x="288" y="214" class="dz-oznaka">1. PREZIME</text><rect x="288" y="221" width="380" height="9" rx="4.5" class="dz-linija"/><text x="288" y="268" class="dz-oznaka">2. IME</text><rect x="288" y="275" width="300" height="9" rx="4.5" class="dz-linija"/><text x="288" y="322" class="dz-oznaka">3. DATUM I MESTO ROĐENJA</text><rect x="288" y="329" width="420" height="9" rx="4.5" class="dz-linija"/><text x="288" y="376" class="dz-oznaka">4a. DATUM IZDAVANJA</text><rect x="288" y="383" width="200" height="9" rx="4.5" class="dz-linija"/><text x="548" y="376" class="dz-oznaka">4b. VAŽI DO</text><rect x="548" y="383" width="160" height="9" rx="4.5" class="dz-linija"/><text x="288" y="430" class="dz-oznaka">5. BROJ DOZVOLE</text><rect x="288" y="437" width="260" height="9" rx="4.5" class="dz-linija"/><text x="600" y="437" class="dz-oznaka">7. POTPIS</text><path d="M604 470c18-22 34 14 52-6s28 12 46-8 30 10 48-10" fill="none" stroke="rgba(255,255,255,.8)" stroke-width="3.5" stroke-linecap="round"/><text x="52" y="500" class="dz-oznaka">9. KATEGORIJE</text><rect x="52" y="514" width="100" height="62" rx="8" fill="rgba(10,16,28,.3)" stroke="rgba(255,255,255,.75)" stroke-width="2.5"/><text x="102" y="556" text-anchor="middle" class="dz-kat">AM</text><rect x="168" y="514" width="100" height="62" rx="8" fill="rgba(10,16,28,.3)" stroke="rgba(255,255,255,.75)" stroke-width="2.5"/><text x="218" y="556" text-anchor="middle" class="dz-kat">A1</text><rect x="284" y="514" width="100" height="62" rx="8" fill="rgba(10,16,28,.3)" stroke="rgba(255,255,255,.75)" stroke-width="2.5"/><text x="334" y="556" text-anchor="middle" class="dz-kat">A2</text><rect x="400" y="514" width="100" height="62" rx="8" fill="rgba(10,16,28,.3)" stroke="rgba(255,255,255,.75)" stroke-width="2.5"/><text x="450" y="556" text-anchor="middle" class="dz-kat">A</text><rect x="516" y="514" width="100" height="62" rx="8" fill="rgba(10,16,28,.3)" stroke="rgba(255,255,255,.75)" stroke-width="2.5"/><text x="566" y="556" text-anchor="middle" class="dz-kat">B</text><rect x="632" y="514" width="100" height="62" rx="8" fill="rgba(10,16,28,.3)" stroke="rgba(255,255,255,.75)" stroke-width="2.5"/><text x="682" y="556" text-anchor="middle" class="dz-kat">BE</text><rect x="748" y="514" width="100" height="62" rx="8" fill="rgba(10,16,28,.3)" stroke="rgba(255,255,255,.75)" stroke-width="2.5"/><text x="798" y="556" text-anchor="middle" class="dz-kat">C</text><rect x="864" y="514" width="100" height="62" rx="8" fill="rgba(10,16,28,.3)" stroke="rgba(255,255,255,.75)" stroke-width="2.5"/><text x="914" y="556" text-anchor="middle" class="dz-kat">CE</text><text x="948" y="600" text-anchor="end" class="dz-primer">PRIMER · ILUSTRACIJA</text></svg>